# xmcd
#
# Track frame offsets:
#	150
#	14059
#	27708
#	46292
#	64031
#	81120
#	98701
#	114250
#	130408
#	148607
#	167115
#	185208
#
# Disc length: 2731 seconds
#
# Revision: 0
# Processed by: cddbd v1.5.2PL0 Copyright (c) Steve Scherf et al.
# Submitted via: EasyCDDAExtractor 2010.4.0.0
#
DISCID=ab0aa90c
DTITLE=Robin Meade - Brand New Day
DYEAR=2011
DGENRE=
TTITLE0=Put My High Heels On
TTITLE1=A Nice Bunch of Girls
TTITLE2=Right Here Waiting (featuring Bo Bice)
TTITLE3=Never Alone
TTITLE4=Letting It Go
TTITLE5=Rain
TTITLE6=In Valentine
TTITLE7=Morning Sunshine (featuring Billy Dean)
TTITLE8=Welcome Home (featuring Jim Brickman)
TTITLE9=Because You Think I Can
TTITLE10=You Will (featuring John Rich)
TTITLE11=Dirty Laundry (featuring Bo Bice, Kix Brooks, Gary Burr, Sarah Buxton
TTITLE11=and Victoria Shaw)
EXTD=
EXTT0=
EXTT1=
EXTT2=
EXTT3=
EXTT4=
EXTT5=
EXTT6=
EXTT7=
EXTT8=
EXTT9=
EXTT10=
EXTT11=
PLAYORDER=
